<?xml version="1.0" encoding="utf-8"?>
<!-- Generator: Adobe Illustrator 16.0.0, SVG Export Plug-In . SVG Version: 6.00 Build 0)  -->
<!DOCTYPE svg PUBLIC "-//W3C//DTD SVG 1.1//EN" "http://www.w3.org/Graphics/SVG/1.1/DTD/svg11.dtd">
<svg version="1.1" id="Layer_1" xmlns="http://www.w3.org/2000/svg" xmlns:xlink="http://www.w3.org/1999/xlink" x="0px" y="0px"
	 width="460px" height="460px" viewBox="0 0 460 460" enable-background="new 0 0 460 460" xml:space="preserve">
<g>
	<g>
		<path fill="#CCCCCC" d="M6.975,38.009c0-17.697,14.698-32.035,32.832-32.035h378.649c18.133,0,32.837,14.338,32.837,32.035
			v383.073c0,17.687-14.704,32.031-32.837,32.031H39.807c-18.134,0-32.832-14.345-32.832-32.031V38.009L6.975,38.009z"/>
		<path fill="#B3B3B3" d="M418.456,459.086H39.807C18.412,459.086,1,442.038,1,421.082V38.009C1,17.052,18.412,0,39.807,0h378.649
			c21.4,0,38.812,17.052,38.812,38.009v383.073C457.268,442.038,439.856,459.086,418.456,459.086L418.456,459.086z M39.807,11.95
			c-14.809,0-26.858,11.689-26.858,26.06v383.073c0,14.362,12.049,26.055,26.858,26.055h378.649
			c14.814,0,26.862-11.692,26.862-26.055V38.009c0-14.371-12.048-26.06-26.862-26.06H39.807L39.807,11.95z"/>
	</g>
	<path fill-rule="evenodd" clip-rule="evenodd" fill="#FFFFFF" d="M141.656,380.271V178.364H74.552v201.908H141.656L141.656,380.271
		z M108.106,150.806c23.398,0,37.966-15.516,37.966-34.89c-0.437-19.806-14.568-34.885-37.522-34.885
		c-22.958,0-37.966,15.079-37.966,34.885c0,19.374,14.564,34.89,37.086,34.89H108.106L108.106,150.806z"/>
	<path fill-rule="evenodd" clip-rule="evenodd" fill="#FFFFFF" d="M178.793,380.271h67.108V267.518
		c0-6.031,0.439-12.068,2.212-16.372c4.848-12.06,15.894-24.552,34.43-24.552c24.29,0,34,18.525,34,45.66v108.019h67.104V264.501
		c0-62.018-33.105-90.873-77.263-90.873c-36.205,0-52.096,20.239-60.926,34.018h0.443v-29.282h-67.108
		C179.674,197.307,178.793,380.271,178.793,380.271L178.793,380.271z"/>
</g>
</svg>
