<?xml version="1.0" encoding="utf-8"?>
<!-- Generator: Adobe Illustrator 16.0.0, SVG Export Plug-In . SVG Version: 6.00 Build 0)  -->
<!DOCTYPE svg PUBLIC "-//W3C//DTD SVG 1.1//EN" "http://www.w3.org/Graphics/SVG/1.1/DTD/svg11.dtd">
<svg version="1.1" id="Layer_1" xmlns="http://www.w3.org/2000/svg" xmlns:xlink="http://www.w3.org/1999/xlink" x="0px" y="0px"
	 width="460px" height="460px" viewBox="0 0 460 460" enable-background="new 0 0 460 460" xml:space="preserve">
<g>
	<g>
		<path fill="#CCCCCC" d="M6.975,38.009c0-17.697,14.698-32.035,32.832-32.035h378.649c18.133,0,32.837,14.338,32.837,32.035
			v383.073c0,17.687-14.704,32.031-32.837,32.031H39.807c-18.134,0-32.832-14.345-32.832-32.031V38.009L6.975,38.009z"/>
		<path fill="#B3B3B3" d="M418.456,459.086H39.807C18.412,459.086,1,442.038,1,421.082V38.009C1,17.052,18.412,0,39.807,0h378.649
			c21.4,0,38.812,17.052,38.812,38.009v383.073C457.268,442.038,439.856,459.086,418.456,459.086L418.456,459.086z M39.807,11.95
			c-14.809,0-26.858,11.689-26.858,26.06v383.073c0,14.362,12.049,26.055,26.858,26.055h378.649
			c14.814,0,26.862-11.692,26.862-26.055V38.009c0-14.371-12.048-26.06-26.862-26.06H39.807L39.807,11.95z"/>
	</g>
</g>
<g>
	<polygon fill="#FFFFFF" points="279.308,218.848 376.191,315.731 376.191,146.185 	"/>
	<polygon fill="#FFFFFF" points="76.319,146.185 76.319,315.731 173.204,218.848 	"/>
	<polygon fill="#FFFFFF" points="249.925,240.885 244.011,242.856 208.5,242.856 202.586,240.885 189.134,230.796 90.259,329.672 
		362.252,329.672 263.377,230.796 	"/>
	<polygon fill="#FFFFFF" points="240.725,223.143 356.478,136.328 96.033,136.328 211.786,223.143 	"/>
</g>
</svg>
