<?xml version="1.0" encoding="utf-8"?>
<!-- Generator: Adobe Illustrator 16.0.0, SVG Export Plug-In . SVG Version: 6.00 Build 0)  -->
<!DOCTYPE svg PUBLIC "-//W3C//DTD SVG 1.1//EN" "http://www.w3.org/Graphics/SVG/1.1/DTD/svg11.dtd">
<svg version="1.1" id="Layer_1" xmlns="http://www.w3.org/2000/svg" xmlns:xlink="http://www.w3.org/1999/xlink" x="0px" y="0px"
	 width="460px" height="460px" viewBox="0 0 460 460" enable-background="new 0 0 460 460" xml:space="preserve">
<g>
	<g>
		<path fill="#CCCCCC" d="M6.975,38.009c0-17.697,14.698-32.035,32.832-32.035h378.649c18.133,0,32.837,14.338,32.837,32.035
			v383.073c0,17.687-14.704,32.031-32.837,32.031H39.807c-18.134,0-32.832-14.345-32.832-32.031V38.009L6.975,38.009z"/>
		<path fill="#B3B3B3" d="M418.456,459.086H39.807C18.412,459.086,1,442.038,1,421.082V38.009C1,17.052,18.412,0,39.807,0h378.649
			c21.4,0,38.812,17.052,38.812,38.009v383.073C457.268,442.038,439.856,459.086,418.456,459.086L418.456,459.086z M39.807,11.95
			c-14.809,0-26.858,11.689-26.858,26.06v383.073c0,14.362,12.049,26.055,26.858,26.055h378.649
			c14.814,0,26.862-11.692,26.862-26.055V38.009c0-14.371-12.048-26.06-26.862-26.06H39.807L39.807,11.95z"/>
	</g>
</g>
<path fill="#FFFFFF" d="M389.131,145.3c-11.217,4.976-23.272,8.338-35.926,9.85c12.912-7.741,22.834-20,27.502-34.607
	c-12.085,7.169-25.473,12.375-39.722,15.179c-11.409-12.157-27.667-19.752-45.658-19.752c-34.545,0-62.554,28.006-62.554,62.551
	c0,4.902,0.554,9.677,1.62,14.255c-51.987-2.609-98.079-27.512-128.93-65.357c-5.385,9.238-8.47,19.983-8.47,31.447
	c0,21.702,11.043,40.848,27.828,52.066c-10.253-0.325-19.899-3.139-28.332-7.824c-0.006,0.261-0.006,0.522-0.006,0.787
	c0,30.307,21.562,55.588,50.177,61.336c-5.249,1.43-10.775,2.194-16.48,2.194c-4.031,0-7.949-0.393-11.769-1.122
	c7.96,24.85,31.061,42.937,58.434,43.439c-21.408,16.778-48.38,26.778-77.687,26.778c-5.049,0-10.028-0.296-14.922-0.875
	c27.683,17.748,60.563,28.105,95.888,28.105c115.057,0,177.975-95.316,177.975-177.978c0-2.712-0.061-5.409-0.182-8.093
	C370.141,168.861,380.746,157.845,389.131,145.3z"/>
</svg>
